<svg width="21" height="20" viewBox="0 0 21 20" fill="none" xmlns="http://www.w3.org/2000/svg">
<path d="M6 8C8.2091 8 10 6.20914 10 4C10 1.79086 8.2091 0 6 0C3.79086 0 2 1.79086 2 4C2 6.20914 3.79086 8 6 8ZM15 8C16.6569 8 18 6.65685 18 5C18 3.34315 16.6569 2 15 2C13.3431 2 12 3.34315 12 5C12 6.65685 13.3431 8 15 8ZM2.25 10C1.00736 10 0 11.0074 0 12.25V12.5C0 12.5 0 17 6 17C7.38985 17 8.4578 16.7585 9.2783 16.3875C9.0973 15.7901 9 15.1564 9 14.5C9 12.8431 9.6199 11.3311 10.6405 10.1831C10.3674 10.0653 10.0663 10 9.75 10H2.25ZM12.2772 10.9759C12.592 12.0661 11.9376 13.1995 10.836 13.4721L10.2518 13.6166C10.2069 13.9043 10.1836 14.1995 10.1836 14.5003C10.1836 14.815 10.2091 15.1235 10.2582 15.4237L10.7976 15.5536C11.9102 15.8216 12.5715 16.9666 12.2476 18.0641L12.0613 18.6954C12.5005 19.081 13.0009 19.3942 13.5455 19.6169L14.0388 19.0982C14.8273 18.269 16.1496 18.2692 16.9379 19.0987L17.4366 19.6235C17.9801 19.4032 18.4801 19.093 18.9194 18.7106L18.7214 18.0247C18.4066 16.9344 19.061 15.801 20.1626 15.5285L20.7463 15.384C20.7912 15.0963 20.8145 14.8011 20.8145 14.5003C20.8145 14.1856 20.789 13.877 20.7399 13.5767L20.2009 13.4469C19.0884 13.179 18.4271 12.034 18.751 10.9364L18.9371 10.3056C18.498 9.9198 17.9975 9.6066 17.4529 9.3838L16.9598 9.9023C16.1713 10.7316 14.849 10.7313 14.0607 9.9018L13.5619 9.377C13.0184 9.5972 12.5184 9.9073 12.0791 10.2897L12.2772 10.9759ZM15.4991 16.0003C14.6984 16.0003 14.0494 15.3287 14.0494 14.5003C14.0494 13.6719 14.6984 13.0003 15.4991 13.0003C16.2997 13.0003 16.9487 13.6719 16.9487 14.5003C16.9487 15.3287 16.2997 16.0003 15.4991 16.0003Z" fill="#F2F7FF"/>
</svg>
