<svg width="17" height="18" viewBox="0 0 17 18" fill="none" xmlns="http://www.w3.org/2000/svg">
<path d="M10.8409 6.63158C11.6624 6.63158 12.3284 7.37384 12.3284 8.28947V11.3684H12.325V12.3158H4.675V9.47368H4.67664V8.28947C4.67664 7.37384 5.34262 6.63158 6.16414 6.63158H10.8409ZM17 8.28947C17 7.37384 16.334 6.63158 15.5125 6.63158L12.6435 6.63069C12.9776 7.08129 13.1784 7.65919 13.1784 8.28947V9.47368H13.175V12.3158H16.3625C16.7146 12.3158 17 11.9977 17 11.6053V8.28947ZM3.825 11.3684H3.82664V8.28947L3.83398 8.08143C3.87291 7.53234 4.06456 7.03118 4.36159 6.63069L1.4875 6.63158L1.3655 6.63707C0.601044 6.70623 0 7.4196 0 8.28947V11.6053C0 11.9977 0.285422 12.3158 0.6375 12.3158H3.825V11.3684ZM8.5 0C9.90837 0 11.05 1.27246 11.05 2.84211C11.05 4.41175 9.90837 5.68421 8.5 5.68421C7.09164 5.68421 5.95 4.41175 5.95 2.84211C5.95 1.27246 7.09164 0 8.5 0ZM14.025 0.947368C15.1986 0.947368 16.15 2.00775 16.15 3.31579C16.15 4.62383 15.1986 5.68421 14.025 5.68421C12.8514 5.68421 11.9 4.62383 11.9 3.31579C11.9 2.00775 12.8514 0.947368 14.025 0.947368ZM2.975 0.947368C4.1486 0.947368 5.1 2.00775 5.1 3.31579C5.1 4.62383 4.1486 5.68421 2.975 5.68421C1.8014 5.68421 0.85 4.62383 0.85 3.31579C0.85 2.00775 1.8014 0.947368 2.975 0.947368ZM0 13.9737C0 13.5813 0.285422 13.2632 0.6375 13.2632H16.3625C16.7146 13.2632 17 13.5813 17 13.9737V14.4474C17 16.4095 15.5729 18 13.8125 18H3.1875C1.42709 18 0 16.4095 0 14.4474V13.9737Z" fill="#131FA8"/>
</svg>
